<svg xmlns="http://www.w3.org/2000/svg" width="100%" version="1.1" viewBox="0 0 100 100">
  <defs>
    <path d="M129.079 24.568H174.058V82.209H129.079z"></path>
    <path d="M106.778 41.388H174.436V99.97399999999999H106.778z"></path>
    <path d="M117.929 39.688H155.916V78.809H117.929z"></path>
  </defs>
  <g>
    <circle cx="50" cy="50" r="50" fill="#000" fill-rule="evenodd" stroke-width="0.265"></circle>
    <path fill="#ff0" stroke-width="0.746"
          d="M151.182 32.855A160.63 160.63 0 0028.346 188.977a160.63 160.63 0 00122.836 156.12V299.88A117.165 117.165 0 0171.81 188.977a117.165 117.165 0 0179.37-110.903zm75.59 0v45.22a117.165 117.165 0 0179.37 110.902 117.165 117.165 0 01-79.37 110.902v45.219a160.63 160.63 0 00122.833-156.121A160.63 160.63 0 00226.771 32.855z"
          transform="scale(.26458)"></path>
    <text xml:space="preserve" style="line-height: 1.25;" x="141.174" y="63.311" stroke-width="0.265"
          font-family="Formula1" font-size="10.583"></text>
    <g fill="#fff" stroke-width="0.265" ariaLabel="M" font-family="Formula1" font-size="66.928" font-stretch="normal"
       font-style="normal" font-weight="500" transform="matrix(.55339 0 0 .55708 -60.482 30.931)"
       style="line-height: 0; white-space: pre;" font-variant="normal">
      <path
        d="M163.505 56.507l3.146-35.873q.67-8.031 4.35-11.578 3.748-3.547 9.437-3.547 6.09 0 9.637 3.748 3.615 3.68 4.618 10.106l3.95 24.964q.133.803.4 1.204.335.402 1.005.402.669 0 1.004-.469.334-.468.401-1.271l3.815-24.897q.937-6.358 4.484-10.04 3.614-3.747 9.638-3.747 6.358 0 9.437 3.614 3.145 3.547 3.814 11.511l3.146 35.873H222.87l-2.677-37.814q-.067-.669-.268-1.137-.134-.469-.803-.469-.535 0-.87.469-.335.401-.402 1.003l-4.484 26.838q-.87 5.355-4.35 8.634-3.413 3.28-9.035 3.28-5.823 0-9.303-3.347-3.48-3.413-4.35-8.633l-4.685-26.705q-.134-.736-.469-1.137-.335-.402-.87-.402-.67 0-.937.469-.2.468-.268 1.204l-2.677 37.747z"></path>
    </g>
  </g>
</svg>
