<svg xmlns="http://www.w3.org/2000/svg" width="100%" version="1.1" viewBox="0 0 100 100">
  <defs>
    <path d="M129.079 24.568H174.058V82.209H129.079z"></path>
    <path d="M106.778 41.388H174.436V99.97399999999999H106.778z"></path>
    <path d="M117.929 39.688H155.916V78.809H117.929z"></path>
  </defs>
  <g>
    <circle cx="50" cy="50" r="50" fill="#000" fill-rule="evenodd" stroke-width="0.265"></circle>
    <path fill="red" stroke-width="0.746"
          d="M151.182 32.855A160.63 160.63 0 0028.346 188.977a160.63 160.63 0 00122.836 156.12V299.88A117.165 117.165 0 0171.81 188.977a117.165 117.165 0 0179.37-110.903zm75.59 0v45.22a117.165 117.165 0 0179.37 110.902 117.165 117.165 0 01-79.37 110.902v45.219a160.63 160.63 0 00122.833-156.121A160.63 160.63 0 00226.771 32.855z"
          transform="scale(.26458)"></path>
    <text xml:space="preserve" style="line-height: 1.25;" x="141.174" y="63.311" stroke-width="0.265"
          font-family="Formula1" font-size="10.583"></text>
    <g fill="#fff" stroke-width="0.265" ariaLabel="S" font-family="Formula1" font-size="66.928" font-stretch="normal"
       font-style="normal" font-weight="500" transform="matrix(.72225 0 0 .72706 -84.575 27.411)"
       style="line-height: 0; white-space: pre;" font-variant="normal">
      <path
        d="M189.875 37.835l-12.047-3.548q-6.96-2.074-10.307-5.688-3.346-3.614-3.346-8.634 0-6.291 4.417-9.972 4.417-3.681 12.448-3.681h25.767v11.043h-25.834q-2.141 0-3.011.803-.87.736-.87 1.673 0 1.205.803 2.008.87.736 2.744 1.272l12.247 3.547q7.764 2.275 11.646 5.622 3.949 3.28 3.949 9.236 0 3.078-1.205 5.822-1.138 2.744-3.547 4.752-2.343 2.008-6.024 3.213-3.614 1.204-8.5 1.204h-23.692V45.464h25.7q2.543 0 3.547-1.004 1.004-1.003 1.004-2.342 0-1.606-1.271-2.41-1.205-.87-4.618-1.873z"></path>
    </g>
  </g>
</svg>
