<svg xmlns="http://www.w3.org/2000/svg" width="100%" version="1.1" viewBox="0 0 100 100">
  <defs>
    <path d="M129.079 24.568H174.058V82.209H129.079z"></path>
    <path d="M106.778 41.388H174.436V99.97399999999999H106.778z"></path>
    <path d="M117.929 39.688H155.916V78.809H117.929z"></path>
  </defs>
  <g>
    <circle cx="50" cy="50" r="50" fill="#000" fill-rule="evenodd" stroke-width="0.265"></circle>
    <path fill="#00f" stroke-width="0.746"
          d="M151.182 32.855A160.63 160.63 0 0028.346 188.977a160.63 160.63 0 00122.836 156.12V299.88A117.165 117.165 0 0171.81 188.977a117.165 117.165 0 0179.37-110.903zm75.59 0v45.22a117.165 117.165 0 0179.37 110.902 117.165 117.165 0 01-79.37 110.902v45.219a160.63 160.63 0 00122.833-156.121A160.63 160.63 0 00226.771 32.855z"
          transform="scale(.26458)"></path>
    <text xml:space="preserve" style="line-height: 1.25;" x="141.174" y="63.311" stroke-width="0.265"
          font-family="Formula1" font-size="10.583"></text>
    <g fill="#fff" stroke-width="0.265" ariaLabel="w" font-family="Formula1" font-size="66.928" font-stretch="normal"
       font-style="normal" font-weight="500" transform="matrix(.6465 0 0 .65082 -77.126 28.5)"
       style="line-height: 0; white-space: pre;" font-variant="normal">
      <path
        d="M196.701 15.48q3.213 0 5.488.938 2.276.937 3.815 2.476 1.54 1.473 2.343 3.48.87 2.008 1.204 4.15l2.945 19.208q.067.67.402 1.138.334.468.937.468.602 0 .87-.468.268-.469.334-1.138l5.087-29.381h11.31l-5.019 30.72q-.803 4.752-4.15 7.429-3.279 2.677-7.964 2.677-6.023 0-9.503-3.079-3.414-3.079-4.217-8.165l-2.878-18.405q-.067-.603-.334-.937-.201-.335-.804-.335-.602 0-.803.335-.2.334-.267 1.004L193.087 46q-.67 5.02-3.949 8.098-3.279 3.079-8.566 3.079-5.087 0-8.433-2.544-3.346-2.543-4.35-7.696l-5.957-30.586h12.114l5.354 29.314q.134.87.402 1.272.334.401.87.401.602 0 .87-.401.334-.469.401-1.205l2.677-19.342q.268-2.075 1.138-4.016.87-1.94 2.343-3.48 1.472-1.54 3.614-2.476 2.208-.937 5.086-.937z"></path>
    </g>
  </g>
</svg>
